<svg width="0" height="0" class="hidden">
  <symbol  xmlns="http://www.w3.org/2000/svg" viewBox="0 0 24 24" id="like">
    <path d="M20.7633 12.5094C21.157 11.9891 21.375 11.3516 21.375 10.6883C21.375 9.63596 20.7867 8.63987 19.8398 8.0844C19.5961 7.94142 19.3185 7.86617 19.0359 7.86643H13.4156L13.5563 4.98596C13.5891 4.28987 13.343 3.62893 12.8648 3.12502C12.6302 2.87665 12.3471 2.67904 12.0331 2.5444C11.7191 2.40975 11.3807 2.34094 11.0391 2.34221C9.82031 2.34221 8.74219 3.16252 8.41875 4.33674L6.40547 11.6258H3.375C2.96016 11.6258 2.625 11.961 2.625 12.3758V20.9071C2.625 21.3219 2.96016 21.6571 3.375 21.6571H17.468C17.6836 21.6571 17.8945 21.6149 18.0891 21.5305C19.2047 21.0547 19.9242 19.9649 19.9242 18.7555C19.9242 18.4602 19.882 18.1696 19.7977 17.8883C20.1914 17.368 20.4094 16.7305 20.4094 16.0672C20.4094 15.7719 20.3672 15.4813 20.2828 15.2C20.6766 14.6797 20.8945 14.0422 20.8945 13.3789C20.8898 13.0836 20.8477 12.7906 20.7633 12.5094ZM4.3125 19.9696V13.3133H6.21094V19.9696H4.3125ZM19.2281 11.6961L18.7148 12.1414L19.0406 12.7367C19.148 12.9328 19.2036 13.153 19.2023 13.3766C19.2023 13.7633 19.0336 14.1313 18.743 14.3844L18.2297 14.8297L18.5555 15.425C18.6628 15.6211 18.7185 15.8413 18.7172 16.0649C18.7172 16.4516 18.5484 16.8196 18.2578 17.0727L17.7445 17.518L18.0703 18.1133C18.1776 18.3094 18.2333 18.5296 18.232 18.7531C18.232 19.2781 17.9227 19.7516 17.4445 19.9672H7.71094V13.2383L10.043 4.78909C10.1031 4.57252 10.2322 4.38147 10.4107 4.24486C10.5891 4.10825 10.8073 4.03354 11.032 4.03205C11.2102 4.03205 11.3859 4.08362 11.5266 4.18909C11.7586 4.36252 11.8828 4.62502 11.8687 4.90393L11.6437 9.55393H19.0125C19.4297 9.8094 19.6875 10.2406 19.6875 10.6883C19.6875 11.075 19.5188 11.4406 19.2281 11.6961Z" ></path>
  </symbol>
  <symbol  xmlns="http://www.w3.org/2000/svg" viewBox="0 0 24 24" id="message">
    <path d="M10.8752 12C10.8752 12.2984 10.9937 12.5845 11.2047 12.7955C11.4157 13.0065 11.7018 13.125 12.0002 13.125C12.2986 13.125 12.5847 13.0065 12.7957 12.7955C13.0067 12.5845 13.1252 12.2984 13.1252 12C13.1252 11.7016 13.0067 11.4155 12.7957 11.2045C12.5847 10.9935 12.2986 10.875 12.0002 10.875C11.7018 10.875 11.4157 10.9935 11.2047 11.2045C10.9937 11.4155 10.8752 11.7016 10.8752 12ZM15.5627 12C15.5627 12.2984 15.6812 12.5845 15.8922 12.7955C16.1032 13.0065 16.3893 13.125 16.6877 13.125C16.9861 13.125 17.2722 13.0065 17.4832 12.7955C17.6942 12.5845 17.8127 12.2984 17.8127 12C17.8127 11.7016 17.6942 11.4155 17.4832 11.2045C17.2722 10.9935 16.9861 10.875 16.6877 10.875C16.3893 10.875 16.1032 10.9935 15.8922 11.2045C15.6812 11.4155 15.5627 11.7016 15.5627 12ZM6.18769 12C6.18769 12.2984 6.30622 12.5845 6.5172 12.7955C6.72818 13.0065 7.01433 13.125 7.31269 13.125C7.61106 13.125 7.89721 13.0065 8.10819 12.7955C8.31917 12.5845 8.43769 12.2984 8.43769 12C8.43769 11.7016 8.31917 11.4155 8.10819 11.2045C7.89721 10.9935 7.61106 10.875 7.31269 10.875C7.01433 10.875 6.72818 10.9935 6.5172 11.2045C6.30622 11.4155 6.18769 11.7016 6.18769 12ZM21.6846 7.93125C21.1549 6.67266 20.3955 5.54297 19.4275 4.57266C18.4663 3.60796 17.3253 2.84114 16.0689 2.31563C14.7799 1.77422 13.4111 1.5 12.0002 1.5H11.9533C10.533 1.50703 9.15723 1.78828 7.86348 2.34141C6.61791 2.87232 5.48753 3.64049 4.53535 4.60312C3.57676 5.57109 2.82441 6.69609 2.3041 7.95C1.76504 9.24844 1.49316 10.6289 1.50019 12.0492C1.50815 13.6769 1.89322 15.2806 2.62519 16.7344V20.2969C2.62519 20.5828 2.73878 20.857 2.94097 21.0592C3.14316 21.2614 3.41738 21.375 3.70332 21.375H7.26816C8.72198 22.107 10.3257 22.492 11.9533 22.5H12.0025C13.4064 22.5 14.7682 22.2281 16.0502 21.6961C17.3002 21.1768 18.437 20.419 19.3971 19.4648C20.365 18.5063 21.1268 17.3859 21.6588 16.1367C22.2119 14.843 22.4932 13.4672 22.5002 12.0469C22.5072 10.6195 22.2307 9.23438 21.6846 7.93125ZM18.1432 18.1969C16.5002 19.8234 14.3205 20.7188 12.0002 20.7188H11.9604C10.5471 20.7117 9.14316 20.3602 7.90332 19.6992L7.70644 19.5938H4.40644V16.2938L4.30098 16.0969C3.64004 14.857 3.28848 13.4531 3.28144 12.0398C3.27207 9.70312 4.16504 7.50937 5.80332 5.85703C7.43926 4.20469 9.62598 3.29062 11.9627 3.28125H12.0025C13.1744 3.28125 14.3111 3.50859 15.3822 3.95859C16.4275 4.39687 17.365 5.02734 18.1713 5.83359C18.9752 6.6375 19.608 7.57734 20.0463 8.62266C20.501 9.70547 20.7283 10.8539 20.7236 12.0398C20.7096 14.3742 19.7932 16.5609 18.1432 18.1969Z" ></path>
  </symbol>
  <symbol  xmlns="http://www.w3.org/2000/svg" viewBox="0 0 24 24" id="share-alt">
    <path d="M17.625 15.5625C16.957 15.5625 16.3406 15.7969 15.8578 16.1883L11.0016 12.675C11.0829 12.2287 11.0829 11.7713 11.0016 11.325L15.8578 7.81172C16.3406 8.20312 16.957 8.4375 17.625 8.4375C19.1766 8.4375 20.4375 7.17656 20.4375 5.625C20.4375 4.07344 19.1766 2.8125 17.625 2.8125C16.0734 2.8125 14.8125 4.07344 14.8125 5.625C14.8125 5.89687 14.85 6.15703 14.9227 6.40547L10.3102 9.74531C9.62578 8.83828 8.53828 8.25 7.3125 8.25C5.24062 8.25 3.5625 9.92812 3.5625 12C3.5625 14.0719 5.24062 15.75 7.3125 15.75C8.53828 15.75 9.62578 15.1617 10.3102 14.2547L14.9227 17.5945C14.85 17.843 14.8125 18.1055 14.8125 18.375C14.8125 19.9266 16.0734 21.1875 17.625 21.1875C19.1766 21.1875 20.4375 19.9266 20.4375 18.375C20.4375 16.8234 19.1766 15.5625 17.625 15.5625ZM17.625 4.40625C18.2977 4.40625 18.8438 4.95234 18.8438 5.625C18.8438 6.29766 18.2977 6.84375 17.625 6.84375C16.9523 6.84375 16.4062 6.29766 16.4062 5.625C16.4062 4.95234 16.9523 4.40625 17.625 4.40625ZM7.3125 14.0625C6.17578 14.0625 5.25 13.1367 5.25 12C5.25 10.8633 6.17578 9.9375 7.3125 9.9375C8.44922 9.9375 9.375 10.8633 9.375 12C9.375 13.1367 8.44922 14.0625 7.3125 14.0625ZM17.625 19.5938C16.9523 19.5938 16.4062 19.0477 16.4062 18.375C16.4062 17.7023 16.9523 17.1562 17.625 17.1562C18.2977 17.1562 18.8438 17.7023 18.8438 18.375C18.8438 19.0477 18.2977 19.5938 17.625 19.5938Z" ></path>
  </symbol>
  <symbol  xmlns="http://www.w3.org/2000/svg" viewBox="0 0 20 20" id="Vector">
    <path d="M18.9367 4.87422L15.1258 1.06328C14.95 0.8875 14.7344 0.758594 14.5 0.688281V0.625H1.375C0.960156 0.625 0.625 0.960156 0.625 1.375V18.625C0.625 19.0398 0.960156 19.375 1.375 19.375H18.625C19.0398 19.375 19.375 19.0398 19.375 18.625V5.93359C19.375 5.53516 19.218 5.15547 18.9367 4.87422ZM7 2.3125H13V4.75H7V2.3125ZM17.6875 17.6875H2.3125V2.3125H5.5V5.5C5.5 5.91484 5.83516 6.25 6.25 6.25H13.75C14.1648 6.25 14.5 5.91484 14.5 5.5V2.82344L17.6875 6.01094V17.6875ZM10 8.35938C8.13672 8.35938 6.625 9.87109 6.625 11.7344C6.625 13.5977 8.13672 15.1094 10 15.1094C11.8633 15.1094 13.375 13.5977 13.375 11.7344C13.375 9.87109 11.8633 8.35938 10 8.35938ZM10 13.6094C8.96406 13.6094 8.125 12.7703 8.125 11.7344C8.125 10.6984 8.96406 9.85938 10 9.85938C11.0359 9.85938 11.875 10.6984 11.875 11.7344C11.875 12.7703 11.0359 13.6094 10 13.6094Z" ></path>
  </symbol>
</svg>